<?xml version="1.0" encoding="utf-8"?>
<!-- Generator: Adobe Illustrator 26.0.0, SVG Export Plug-In . SVG Version: 6.00 Build 0)  -->
<svg version="1.1" id="Layer_1" xmlns="http://www.w3.org/2000/svg" xmlns:xlink="http://www.w3.org/1999/xlink" x="0px" y="0px"
	 viewBox="0 0 330 280" style="enable-background:new 0 0 330 280;" xml:space="preserve">
<style type="text/css">
	.st0{opacity:0.5;}
	.st1{fill:#FFE25D;}
	.st2{fill:#FFFFFF;}
	.st3{fill:#383838;}
	.st4{opacity:0.5;fill:#383838;enable-background:new    ;}
</style>
<g class="st0">
	<g>
		<path d="M43.5,245.2v7.5h7v4.2h-7v7.6h-4.8v-7.6h-7v-4.2h7v-7.5H43.5z"/>
		<path d="M78.1,256.8h2.9v3.3c0,0.3-0.1,0.5-0.3,0.8c-0.2,0.2-0.5,0.3-0.8,0.3h-1.7v6.4H73v-6.4H61.8c-0.4,0-0.7-0.1-1-0.3
			c-0.3-0.2-0.5-0.5-0.6-0.9l-0.6-2.9l12.8-17.2h5.6V256.8z M73,249.6c0-0.4,0-0.9,0-1.4c0-0.5,0.1-1,0.1-1.6l-7.3,10.2H73V249.6z"
			/>
		<path d="M102.9,253.7c0,2.4-0.3,4.5-0.8,6.3c-0.5,1.8-1.2,3.2-2.2,4.4c-0.9,1.2-2,2-3.3,2.6c-1.3,0.6-2.6,0.9-4.1,0.9
			c-1.5,0-2.8-0.3-4.1-0.9c-1.2-0.6-2.3-1.4-3.2-2.6c-0.9-1.2-1.6-2.6-2.1-4.4c-0.5-1.8-0.8-3.9-0.8-6.3c0-2.4,0.3-4.5,0.8-6.3
			c0.5-1.8,1.2-3.2,2.1-4.4c0.9-1.2,2-2,3.2-2.6c1.2-0.6,2.6-0.8,4.1-0.8c1.5,0,2.8,0.3,4.1,0.8c1.3,0.6,2.4,1.4,3.3,2.6
			c0.9,1.2,1.6,2.6,2.2,4.4C102.6,249.2,102.9,251.3,102.9,253.7z M96.8,253.7c0-1.9-0.1-3.5-0.4-4.7c-0.2-1.2-0.6-2.2-1-2.9
			c-0.4-0.7-0.9-1.2-1.4-1.4c-0.5-0.3-1-0.4-1.5-0.4c-0.5,0-1,0.1-1.5,0.4c-0.5,0.3-0.9,0.7-1.3,1.4c-0.4,0.7-0.7,1.7-0.9,2.9
			c-0.2,1.2-0.4,2.8-0.4,4.7c0,1.9,0.1,3.5,0.4,4.7c0.2,1.2,0.5,2.2,0.9,2.9c0.4,0.7,0.8,1.2,1.3,1.4c0.5,0.3,1,0.4,1.5,0.4
			c0.5,0,1-0.1,1.5-0.4c0.5-0.3,1-0.7,1.4-1.4c0.4-0.7,0.7-1.7,1-2.9C96.7,257.2,96.8,255.6,96.8,253.7z"/>
		<path d="M124.9,253.7c0,2.4-0.3,4.5-0.8,6.3c-0.5,1.8-1.2,3.2-2.2,4.4c-0.9,1.2-2,2-3.3,2.6c-1.3,0.6-2.6,0.9-4.1,0.9
			c-1.5,0-2.8-0.3-4.1-0.9c-1.2-0.6-2.3-1.4-3.2-2.6c-0.9-1.2-1.6-2.6-2.1-4.4c-0.5-1.8-0.8-3.9-0.8-6.3c0-2.4,0.3-4.5,0.8-6.3
			c0.5-1.8,1.2-3.2,2.1-4.4c0.9-1.2,2-2,3.2-2.6c1.2-0.6,2.6-0.8,4.1-0.8c1.5,0,2.8,0.3,4.1,0.8c1.3,0.6,2.4,1.4,3.3,2.6
			c0.9,1.2,1.6,2.6,2.2,4.4C124.7,249.2,124.9,251.3,124.9,253.7z M118.9,253.7c0-1.9-0.1-3.5-0.4-4.7c-0.2-1.2-0.6-2.2-1-2.9
			c-0.4-0.7-0.9-1.2-1.4-1.4c-0.5-0.3-1-0.4-1.5-0.4c-0.5,0-1,0.1-1.5,0.4c-0.5,0.3-0.9,0.7-1.3,1.4c-0.4,0.7-0.7,1.7-0.9,2.9
			c-0.2,1.2-0.4,2.8-0.4,4.7c0,1.9,0.1,3.5,0.4,4.7c0.2,1.2,0.5,2.2,0.9,2.9c0.4,0.7,0.8,1.2,1.3,1.4c0.5,0.3,1,0.4,1.5,0.4
			c0.5,0,1-0.1,1.5-0.4c0.5-0.3,1-0.7,1.4-1.4c0.4-0.7,0.7-1.7,1-2.9C118.7,257.2,118.9,255.6,118.9,253.7z"/>
		<path d="M153.2,239.9v4.9h-11.4v7h9.5v5h-9.5v10.8h-6.5v-27.7H153.2z"/>
		<path d="M155.4,267.6v-19.7h3.5c0.3,0,0.5,0,0.7,0.1c0.2,0.1,0.4,0.1,0.5,0.2c0.1,0.1,0.2,0.3,0.3,0.4c0.1,0.2,0.1,0.4,0.2,0.6
			l0.3,1.8c0.7-1.1,1.5-2,2.4-2.6c0.9-0.6,1.9-1,2.9-1c0.9,0,1.6,0.2,2.2,0.6l-0.8,4.3c-0.1,0.3-0.2,0.5-0.3,0.6
			c-0.2,0.1-0.4,0.2-0.6,0.2c-0.2,0-0.5,0-0.8-0.1c-0.3-0.1-0.7-0.1-1.1-0.1c-1.5,0-2.8,0.8-3.7,2.5v12.1H155.4z"/>
		<path d="M179.5,247.5c1.3,0,2.5,0.2,3.6,0.6c1.1,0.4,2,1,2.8,1.8c0.8,0.8,1.4,1.7,1.8,2.8c0.4,1.1,0.7,2.4,0.7,3.8
			c0,0.4,0,0.8-0.1,1.1c0,0.3-0.1,0.5-0.2,0.7c-0.1,0.2-0.2,0.3-0.4,0.3c-0.2,0.1-0.4,0.1-0.7,0.1h-11.4c0.2,1.6,0.7,2.8,1.5,3.6
			c0.8,0.7,1.9,1.1,3.1,1.1c0.7,0,1.3-0.1,1.8-0.2c0.5-0.2,0.9-0.3,1.3-0.6c0.4-0.2,0.7-0.4,1.1-0.6c0.3-0.2,0.7-0.2,1-0.2
			c0.5,0,0.8,0.2,1.1,0.5l1.7,2.1c-0.6,0.7-1.3,1.3-2,1.7c-0.7,0.4-1.4,0.8-2.2,1c-0.7,0.2-1.5,0.4-2.2,0.5
			c-0.7,0.1-1.4,0.1-2.1,0.1c-1.4,0-2.7-0.2-3.9-0.7c-1.2-0.4-2.3-1.1-3.2-2c-0.9-0.9-1.6-2-2.1-3.3c-0.5-1.3-0.8-2.9-0.8-4.6
			c0-1.3,0.2-2.6,0.7-3.7c0.4-1.2,1.1-2.2,1.9-3.1c0.8-0.9,1.9-1.6,3.1-2.1C176.7,247.8,178,247.5,179.5,247.5z M179.6,251.6
			c-1.1,0-2,0.3-2.6,1c-0.6,0.6-1.1,1.6-1.3,2.8h7.4c0-0.5-0.1-0.9-0.2-1.4c-0.1-0.4-0.3-0.8-0.6-1.2c-0.3-0.3-0.6-0.6-1.1-0.8
			C180.8,251.7,180.3,251.6,179.6,251.6z"/>
		<path d="M200.2,247.5c1.3,0,2.5,0.2,3.6,0.6c1.1,0.4,2,1,2.8,1.8c0.8,0.8,1.4,1.7,1.8,2.8c0.4,1.1,0.7,2.4,0.7,3.8
			c0,0.4,0,0.8-0.1,1.1c0,0.3-0.1,0.5-0.2,0.7c-0.1,0.2-0.2,0.3-0.4,0.3c-0.2,0.1-0.4,0.1-0.7,0.1h-11.4c0.2,1.6,0.7,2.8,1.5,3.6
			c0.8,0.7,1.9,1.1,3.1,1.1c0.7,0,1.3-0.1,1.8-0.2c0.5-0.2,0.9-0.3,1.3-0.6c0.4-0.2,0.7-0.4,1.1-0.6c0.3-0.2,0.7-0.2,1-0.2
			c0.5,0,0.8,0.2,1.1,0.5l1.7,2.1c-0.6,0.7-1.3,1.3-2,1.7c-0.7,0.4-1.4,0.8-2.2,1c-0.7,0.2-1.5,0.4-2.2,0.5
			c-0.7,0.1-1.4,0.1-2.1,0.1c-1.4,0-2.7-0.2-3.9-0.7c-1.2-0.4-2.3-1.1-3.2-2c-0.9-0.9-1.6-2-2.1-3.3c-0.5-1.3-0.8-2.9-0.8-4.6
			c0-1.3,0.2-2.6,0.7-3.7c0.4-1.2,1.1-2.2,1.9-3.1c0.8-0.9,1.9-1.6,3.1-2.1C197.3,247.8,198.7,247.5,200.2,247.5z M200.3,251.6
			c-1.1,0-2,0.3-2.6,1c-0.6,0.6-1.1,1.6-1.3,2.8h7.4c0-0.5-0.1-0.9-0.2-1.4c-0.1-0.4-0.3-0.8-0.6-1.2c-0.3-0.3-0.6-0.6-1.1-0.8
			C201.5,251.7,201,251.6,200.3,251.6z"/>
		<path d="M235.2,245.5c-0.2,0.3-0.4,0.5-0.6,0.7c-0.2,0.2-0.5,0.2-0.8,0.2c-0.3,0-0.6-0.1-0.9-0.3c-0.3-0.2-0.7-0.4-1.1-0.6
			c-0.4-0.2-0.9-0.4-1.5-0.6c-0.5-0.2-1.2-0.3-1.9-0.3c-1.2,0-2.1,0.3-2.7,0.8c-0.6,0.5-0.9,1.2-0.9,2.1c0,0.6,0.2,1,0.5,1.4
			c0.4,0.4,0.8,0.7,1.4,1c0.6,0.3,1.2,0.5,2,0.7c0.7,0.2,1.5,0.5,2.3,0.7c0.8,0.3,1.5,0.6,2.3,1c0.7,0.4,1.4,0.8,2,1.4
			c0.6,0.6,1,1.3,1.4,2.1c0.4,0.8,0.5,1.8,0.5,3c0,1.3-0.2,2.5-0.7,3.6c-0.4,1.1-1.1,2.1-1.9,2.9c-0.8,0.8-1.9,1.5-3.1,2
			c-1.2,0.5-2.6,0.7-4.2,0.7c-0.9,0-1.7-0.1-2.6-0.3c-0.9-0.2-1.8-0.4-2.6-0.8c-0.8-0.3-1.6-0.7-2.4-1.2c-0.7-0.4-1.4-0.9-1.9-1.5
			l1.9-3c0.1-0.2,0.3-0.4,0.6-0.6c0.3-0.1,0.5-0.2,0.8-0.2c0.4,0,0.8,0.1,1.2,0.4c0.4,0.2,0.8,0.5,1.3,0.8c0.5,0.3,1,0.6,1.7,0.8
			c0.6,0.2,1.4,0.4,2.2,0.4c1.2,0,2.1-0.3,2.7-0.8c0.6-0.5,1-1.3,1-2.4c0-0.6-0.2-1.2-0.5-1.6c-0.4-0.4-0.8-0.7-1.4-1
			c-0.6-0.3-1.2-0.5-2-0.7c-0.7-0.2-1.5-0.4-2.3-0.7c-0.8-0.2-1.5-0.6-2.3-0.9c-0.7-0.4-1.4-0.8-2-1.4c-0.6-0.6-1-1.3-1.4-2.2
			c-0.4-0.9-0.5-2-0.5-3.3c0-1,0.2-2.1,0.6-3c0.4-1,1-1.9,1.8-2.6c0.8-0.8,1.8-1.4,3-1.9c1.2-0.5,2.5-0.7,4.1-0.7
			c0.8,0,1.7,0.1,2.5,0.2c0.8,0.1,1.6,0.3,2.3,0.6c0.7,0.3,1.4,0.6,2,0.9s1.2,0.8,1.7,1.2L235.2,245.5z"/>
		<path d="M240.4,273.8v-26h3.7c0.4,0,0.7,0.1,0.9,0.2c0.2,0.2,0.4,0.4,0.5,0.7l0.4,1.4c0.4-0.4,0.8-0.8,1.2-1.1
			c0.4-0.3,0.9-0.6,1.4-0.9c0.5-0.2,1-0.4,1.6-0.6c0.6-0.1,1.2-0.2,1.9-0.2c1,0,2,0.2,2.9,0.7c0.9,0.5,1.6,1.1,2.3,2
			c0.6,0.9,1.1,1.9,1.5,3.2c0.4,1.2,0.5,2.7,0.5,4.2c0,1.5-0.2,2.9-0.6,4.1c-0.4,1.3-1,2.3-1.7,3.3c-0.7,0.9-1.6,1.6-2.7,2.2
			c-1,0.5-2.2,0.8-3.4,0.8c-1,0-1.9-0.1-2.6-0.4c-0.7-0.3-1.3-0.7-1.9-1.2v7.6H240.4z M250,252c-0.4,0-0.8,0-1.2,0.1
			c-0.3,0.1-0.7,0.2-1,0.4s-0.6,0.3-0.8,0.6c-0.3,0.2-0.5,0.5-0.8,0.8v8.4c0.4,0.5,0.9,0.8,1.4,1c0.5,0.2,1.1,0.3,1.6,0.3
			c0.5,0,1-0.1,1.5-0.3c0.5-0.2,0.9-0.6,1.2-1c0.3-0.5,0.6-1.1,0.8-1.9c0.2-0.8,0.3-1.7,0.3-2.8c0-1-0.1-1.9-0.2-2.6
			c-0.2-0.7-0.4-1.3-0.6-1.7s-0.6-0.8-1-0.9C250.9,252.1,250.5,252,250,252z"/>
		<path d="M269.2,242.5c0,0.5-0.1,0.9-0.3,1.3c-0.2,0.4-0.5,0.8-0.8,1.1c-0.3,0.3-0.7,0.6-1.2,0.7c-0.4,0.2-0.9,0.3-1.4,0.3
			c-0.5,0-0.9-0.1-1.3-0.3c-0.4-0.2-0.8-0.4-1.1-0.7c-0.3-0.3-0.6-0.7-0.8-1.1c-0.2-0.4-0.3-0.9-0.3-1.3c0-0.5,0.1-0.9,0.3-1.4
			c0.2-0.4,0.4-0.8,0.8-1.1c0.3-0.3,0.7-0.6,1.1-0.7c0.4-0.2,0.9-0.3,1.3-0.3c0.5,0,1,0.1,1.4,0.3c0.4,0.2,0.8,0.4,1.2,0.7
			c0.3,0.3,0.6,0.7,0.8,1.1S269.2,242,269.2,242.5z M268.5,247.9v19.7h-5.9v-19.7H268.5z"/>
		<path d="M273.2,267.6v-19.7h3.7c0.4,0,0.7,0.1,0.9,0.2c0.2,0.2,0.4,0.4,0.5,0.7l0.3,1.1c0.4-0.4,0.8-0.7,1.2-1
			c0.4-0.3,0.8-0.6,1.3-0.8c0.5-0.2,1-0.4,1.5-0.5c0.5-0.1,1.1-0.2,1.8-0.2c1.1,0,2,0.2,2.9,0.6c0.8,0.4,1.5,0.9,2.1,1.6
			c0.6,0.7,1,1.5,1.3,2.4c0.3,0.9,0.4,1.9,0.4,3v12.5h-5.9V255c0-1-0.2-1.7-0.7-2.3c-0.4-0.5-1.1-0.8-2-0.8c-0.6,0-1.3,0.1-1.8,0.4
			c-0.6,0.3-1.1,0.7-1.6,1.1v14.1H273.2z"/>
		<path d="M307.3,252.2c-0.2,0.2-0.3,0.4-0.5,0.5c-0.2,0.1-0.4,0.2-0.7,0.2c-0.3,0-0.6-0.1-0.8-0.2c-0.3-0.1-0.6-0.3-0.9-0.4
			c-0.3-0.1-0.7-0.3-1.1-0.4c-0.4-0.1-0.9-0.2-1.4-0.2c-0.7,0-1.3,0.1-1.7,0.4c-0.4,0.3-0.6,0.7-0.6,1.2c0,0.4,0.1,0.7,0.4,0.9
			c0.3,0.2,0.6,0.5,1,0.6c0.4,0.2,0.9,0.4,1.5,0.5c0.5,0.2,1.1,0.3,1.7,0.6c0.6,0.2,1.1,0.4,1.7,0.7c0.5,0.3,1,0.6,1.5,1
			c0.4,0.4,0.8,0.9,1,1.5c0.3,0.6,0.4,1.3,0.4,2.1c0,1-0.2,1.9-0.5,2.7c-0.4,0.8-0.9,1.5-1.6,2.1c-0.7,0.6-1.6,1.1-2.6,1.4
			c-1,0.3-2.2,0.5-3.6,0.5c-0.7,0-1.3-0.1-2-0.2c-0.7-0.1-1.3-0.3-1.9-0.5c-0.6-0.2-1.2-0.5-1.7-0.8c-0.5-0.3-1-0.6-1.4-1l1.4-2.2
			c0.2-0.3,0.4-0.5,0.6-0.6c0.2-0.1,0.5-0.2,0.9-0.2c0.3,0,0.6,0.1,0.9,0.2c0.3,0.2,0.6,0.3,0.9,0.5c0.3,0.2,0.7,0.3,1.1,0.5
			c0.4,0.2,1,0.2,1.6,0.2c0.5,0,0.8,0,1.2-0.1c0.3-0.1,0.6-0.2,0.8-0.4c0.2-0.2,0.3-0.3,0.4-0.6c0.1-0.2,0.1-0.4,0.1-0.6
			c0-0.4-0.1-0.7-0.4-1c-0.3-0.3-0.6-0.5-1-0.7c-0.4-0.2-0.9-0.4-1.5-0.5c-0.6-0.2-1.1-0.3-1.7-0.5c-0.6-0.2-1.1-0.4-1.7-0.7
			c-0.6-0.3-1-0.6-1.5-1.1s-0.8-1-1-1.6c-0.3-0.6-0.4-1.4-0.4-2.3c0-0.8,0.2-1.6,0.5-2.4c0.3-0.8,0.8-1.4,1.5-2
			c0.6-0.6,1.5-1,2.4-1.4c1-0.3,2.1-0.5,3.4-0.5c0.7,0,1.4,0.1,2.1,0.2c0.7,0.1,1.3,0.3,1.9,0.5c0.6,0.2,1.1,0.5,1.6,0.8
			c0.5,0.3,0.9,0.6,1.3,1L307.3,252.2z"/>
	</g>
	<g>
		<path d="M33.3,136c-3.6-0.6-6.9-1.6-10.2-3.1c-3.2-1.5-6-3.2-8.2-5.3l4.4-6.4c0.4-0.5,0.9-1,1.5-1.3c0.6-0.4,1.3-0.5,2-0.5
			c0.7,0,1.5,0.2,2.3,0.6c0.8,0.4,1.6,0.9,2.5,1.4s1.9,1.1,3,1.7c1.1,0.6,2.3,1,3.7,1.4l1.7-17.5c-2.2-0.6-4.4-1.3-6.6-2.2
			c-2.2-0.8-4.2-2-5.9-3.4s-3.2-3.2-4.3-5.4c-1.1-2.2-1.6-5-1.6-8.3c0-2.4,0.5-4.8,1.5-7.2c1-2.3,2.4-4.4,4.3-6.3
			c1.9-1.9,4.2-3.4,7-4.6c2.8-1.2,6-1.8,9.5-1.8l0.5-5.2c0.1-0.9,0.5-1.7,1.2-2.4c0.7-0.7,1.6-1.1,2.6-1.1h5.3l-0.9,9.1
			c3.3,0.6,6.2,1.6,8.6,3c2.4,1.4,4.4,2.8,6.1,4.4l-3.5,5.1c-0.5,0.8-1.1,1.3-1.6,1.7c-0.5,0.4-1.2,0.5-1.9,0.5
			c-0.5,0-1.1-0.1-1.7-0.3c-0.6-0.2-1.3-0.5-2-0.8c-0.7-0.3-1.5-0.7-2.4-1c-0.8-0.4-1.8-0.7-2.7-1l-1.6,16.4c1.5,0.4,3,0.9,4.4,1.4
			c1.5,0.5,2.9,1.1,4.3,1.8c1.4,0.7,2.7,1.4,3.8,2.3c1.2,0.9,2.2,1.9,3.1,3.1c0.9,1.2,1.6,2.5,2.1,4.1c0.5,1.5,0.7,3.3,0.7,5.2
			c0,2.9-0.5,5.7-1.5,8.3c-1,2.6-2.4,4.9-4.4,6.8c-1.9,2-4.3,3.6-7,4.8c-2.8,1.3-6,2-9.5,2.3l-0.6,5.8c-0.1,0.9-0.5,1.6-1.2,2.3
			c-0.7,0.7-1.6,1-2.6,1h-5.3L33.3,136z M31.1,86.3c0,1.8,0.6,3.3,1.7,4.4c1.2,1.1,2.7,2.1,4.6,2.8l1.4-14c-1.4,0.2-2.6,0.5-3.6,0.9
			c-1,0.4-1.8,0.9-2.4,1.5c-0.6,0.6-1,1.2-1.3,2C31.3,84.7,31.1,85.5,31.1,86.3z M50.8,116.2c0-1.8-0.6-3.2-1.7-4.2
			c-1.1-1-2.6-1.9-4.5-2.6l-1.5,15.3C48.2,123.8,50.8,121,50.8,116.2z"/>
		<path d="M77,132.4h20.3V79.2c0-2.6,0.1-5.3,0.2-8.2l-11.9,9.9c-0.8,0.6-1.5,1.1-2.3,1.3c-0.8,0.3-1.5,0.4-2.2,0.4
			c-1.3,0-2.4-0.3-3.4-0.8c-1-0.6-1.7-1.1-2.2-1.8l-7.1-9.4l32.9-27.6h18.5v89.3H137v16.2H77V132.4z"/>
		<path d="M223.7,95.8c0,9.2-1,17.2-3,24c-2,6.8-4.7,12.4-8.2,16.8c-3.5,4.4-7.6,7.7-12.4,9.9c-4.8,2.2-10,3.3-15.6,3.3
			c-5.6,0-10.8-1.1-15.5-3.3c-4.8-2.2-8.9-5.5-12.3-9.9c-3.5-4.4-6.2-10-8.1-16.8c-2-6.8-2.9-14.7-2.9-24c0-9.2,1-17.2,2.9-24
			c2-6.8,4.7-12.3,8.1-16.8c3.5-4.4,7.6-7.7,12.3-9.9c4.8-2.1,9.9-3.2,15.5-3.2c5.6,0,10.8,1.1,15.6,3.2c4.8,2.1,8.9,5.4,12.4,9.9
			c3.5,4.4,6.2,10,8.2,16.8C222.7,78.6,223.7,86.6,223.7,95.8z M200.6,95.8c0-7.3-0.5-13.3-1.4-17.9c-0.9-4.7-2.1-8.3-3.7-11
			c-1.5-2.7-3.2-4.5-5.2-5.5c-1.9-1-3.9-1.5-5.9-1.5c-2,0-3.9,0.5-5.8,1.5c-1.9,1-3.6,2.8-5.1,5.5c-1.5,2.7-2.7,6.3-3.5,11
			c-0.9,4.7-1.3,10.6-1.3,17.9c0,7.3,0.4,13.3,1.3,17.9c0.9,4.6,2.1,8.3,3.5,11c1.5,2.7,3.2,4.5,5.1,5.5c1.9,1,3.8,1.5,5.8,1.5
			c2,0,3.9-0.5,5.9-1.5c1.9-1,3.7-2.8,5.2-5.5c1.5-2.7,2.7-6.3,3.7-11C200.1,109.1,200.6,103.2,200.6,95.8z"/>
		<path d="M307.7,95.8c0,9.2-1,17.2-3,24c-2,6.8-4.7,12.4-8.2,16.8c-3.5,4.4-7.6,7.7-12.4,9.9c-4.8,2.2-10,3.3-15.6,3.3
			c-5.6,0-10.8-1.1-15.5-3.3c-4.8-2.2-8.9-5.5-12.3-9.9c-3.5-4.4-6.2-10-8.1-16.8c-2-6.8-2.9-14.7-2.9-24c0-9.2,1-17.2,2.9-24
			c2-6.8,4.7-12.3,8.1-16.8c3.5-4.4,7.6-7.7,12.3-9.9c4.8-2.1,9.9-3.2,15.5-3.2c5.6,0,10.8,1.1,15.6,3.2c4.8,2.1,8.9,5.4,12.4,9.9
			c3.5,4.4,6.2,10,8.2,16.8C306.7,78.6,307.7,86.6,307.7,95.8z M284.5,95.8c0-7.3-0.5-13.3-1.4-17.9c-0.9-4.7-2.1-8.3-3.7-11
			c-1.5-2.7-3.2-4.5-5.2-5.5c-1.9-1-3.9-1.5-5.9-1.5c-2,0-3.9,0.5-5.8,1.5c-1.9,1-3.6,2.8-5.1,5.5c-1.5,2.7-2.7,6.3-3.5,11
			c-0.9,4.7-1.3,10.6-1.3,17.9c0,7.3,0.4,13.3,1.3,17.9c0.9,4.6,2.1,8.3,3.5,11c1.5,2.7,3.2,4.5,5.1,5.5c1.9,1,3.8,1.5,5.8,1.5
			c2,0,3.9-0.5,5.9-1.5c1.9-1,3.7-2.8,5.2-5.5c1.5-2.7,2.7-6.3,3.7-11C284,109.1,284.5,103.2,284.5,95.8z"/>
	</g>
	<g>
		<path d="M43.9,172.3V191h17.4v10.5H43.9v18.7H32v-18.7H14.7V191H32v-18.7H43.9z"/>
		<path d="M116.2,201.2h7.1v8.2c0,0.7-0.2,1.4-0.7,1.9c-0.5,0.5-1.2,0.8-2.1,0.8h-4.2v15.8h-12.7v-15.8H75.9c-0.9,0-1.7-0.3-2.5-0.8
			c-0.7-0.6-1.2-1.3-1.4-2.1l-1.5-7.2l31.7-42.7h13.9V201.2z M103.5,183.3c0-1.1,0-2.3,0.1-3.6c0.1-1.3,0.2-2.6,0.4-3.9l-18.1,25.4
			h17.7V183.3z"/>
		<path d="M177.6,193.5c0,6-0.6,11.2-1.9,15.6c-1.3,4.4-3.1,8-5.3,10.9c-2.3,2.9-5,5-8.1,6.5c-3.1,1.4-6.5,2.1-10.2,2.1
			c-3.6,0-7-0.7-10.1-2.1c-3.1-1.4-5.8-3.6-8-6.5c-2.3-2.9-4-6.5-5.3-10.9c-1.3-4.4-1.9-9.6-1.9-15.6c0-6,0.6-11.2,1.9-15.6
			c1.3-4.4,3-8,5.3-10.9c2.3-2.9,4.9-5,8-6.4c3.1-1.4,6.5-2.1,10.1-2.1c3.6,0,7,0.7,10.2,2.1c3.1,1.4,5.8,3.5,8.1,6.4
			c2.3,2.9,4.1,6.5,5.3,10.9C177,182.3,177.6,187.5,177.6,193.5z M162.5,193.5c0-4.7-0.3-8.6-0.9-11.7c-0.6-3-1.4-5.4-2.4-7.1
			s-2.1-2.9-3.4-3.6c-1.3-0.6-2.5-1-3.8-1c-1.3,0-2.6,0.3-3.8,1c-1.2,0.6-2.3,1.8-3.3,3.6c-1,1.7-1.7,4.1-2.3,7.1
			c-0.6,3-0.9,6.9-0.9,11.7c0,4.8,0.3,8.7,0.9,11.7c0.6,3,1.3,5.4,2.3,7.1c1,1.7,2.1,2.9,3.3,3.6c1.2,0.6,2.5,1,3.8,1
			c1.3,0,2.6-0.3,3.8-1c1.3-0.6,2.4-1.8,3.4-3.6c1-1.7,1.8-4.1,2.4-7.1C162.2,202.2,162.5,198.3,162.5,193.5z"/>
		<path d="M232.3,193.5c0,6-0.6,11.2-1.9,15.6c-1.3,4.4-3.1,8-5.3,10.9c-2.3,2.9-5,5-8.1,6.5c-3.1,1.4-6.5,2.1-10.2,2.1
			c-3.6,0-7-0.7-10.1-2.1c-3.1-1.4-5.8-3.6-8-6.5c-2.3-2.9-4-6.5-5.3-10.9c-1.3-4.4-1.9-9.6-1.9-15.6c0-6,0.6-11.2,1.9-15.6
			c1.3-4.4,3-8,5.3-10.9c2.3-2.9,4.9-5,8-6.4c3.1-1.4,6.5-2.1,10.1-2.1c3.6,0,7,0.7,10.2,2.1c3.1,1.4,5.8,3.5,8.1,6.4
			c2.3,2.9,4.1,6.5,5.3,10.9C231.6,182.3,232.3,187.5,232.3,193.5z M217.2,193.5c0-4.7-0.3-8.6-0.9-11.7c-0.6-3-1.4-5.4-2.4-7.1
			s-2.1-2.9-3.4-3.6c-1.3-0.6-2.5-1-3.8-1c-1.3,0-2.6,0.3-3.8,1c-1.2,0.6-2.3,1.8-3.3,3.6c-1,1.7-1.7,4.1-2.3,7.1
			c-0.6,3-0.9,6.9-0.9,11.7c0,4.8,0.3,8.7,0.9,11.7c0.6,3,1.3,5.4,2.3,7.1c1,1.7,2.1,2.9,3.3,3.6c1.2,0.6,2.5,1,3.8,1
			c1.3,0,2.6-0.3,3.8-1c1.3-0.6,2.4-1.8,3.4-3.6c1-1.7,1.8-4.1,2.4-7.1C216.9,202.2,217.2,198.3,217.2,193.5z"/>
		<path d="M269.4,175.9c0,2.5-0.5,4.8-1.4,6.9c-0.9,2.1-2.1,3.9-3.6,5.3c-1.5,1.5-3.3,2.6-5.3,3.5c-2,0.8-4.1,1.2-6.2,1.2
			c-2.4,0-4.6-0.4-6.6-1.2c-2-0.8-3.7-2-5.2-3.5c-1.5-1.5-2.6-3.3-3.4-5.3c-0.8-2.1-1.2-4.4-1.2-6.9c0-2.6,0.4-5,1.2-7.1
			c0.8-2.1,2-3.9,3.4-5.4c1.5-1.5,3.2-2.7,5.2-3.5c2-0.8,4.2-1.2,6.6-1.2c2.4,0,4.6,0.4,6.6,1.2c2,0.8,3.8,2,5.2,3.5
			c1.5,1.5,2.6,3.3,3.4,5.4S269.4,173.2,269.4,175.9z M291,161.4c0.5-0.5,1.1-1,1.7-1.5c0.7-0.5,1.6-0.7,2.9-0.7h10.6l-51.7,66.6
			c-0.5,0.6-1.1,1.1-1.8,1.5c-0.7,0.4-1.6,0.6-2.6,0.6h-10.9L291,161.4z M258.2,175.9c0-1.6-0.1-2.9-0.4-4c-0.3-1.1-0.6-1.9-1.1-2.5
			c-0.5-0.6-1-1.1-1.7-1.3s-1.3-0.4-2.1-0.4c-0.8,0-1.4,0.1-2.1,0.4c-0.6,0.3-1.2,0.7-1.6,1.3c-0.4,0.6-0.8,1.5-1,2.5
			c-0.3,1.1-0.4,2.4-0.4,4c0,1.5,0.1,2.8,0.4,3.8c0.3,1,0.6,1.8,1,2.4c0.4,0.6,1,1,1.6,1.3c0.6,0.3,1.3,0.4,2.1,0.4
			c0.8,0,1.5-0.1,2.1-0.4s1.2-0.7,1.7-1.3c0.5-0.6,0.8-1.4,1.1-2.4C258,178.6,258.2,177.4,258.2,175.9z M308.9,211.7
			c0,2.5-0.5,4.8-1.4,6.9c-0.9,2.1-2.1,3.9-3.6,5.4c-1.5,1.5-3.3,2.6-5.3,3.5c-2,0.8-4.1,1.2-6.2,1.2c-2.4,0-4.6-0.4-6.6-1.2
			c-2-0.8-3.7-2-5.2-3.5c-1.5-1.5-2.6-3.3-3.4-5.4c-0.8-2.1-1.2-4.4-1.2-6.9c0-2.6,0.4-5,1.2-7.1s2-3.9,3.4-5.4
			c1.5-1.5,3.2-2.7,5.2-3.5c2-0.8,4.2-1.2,6.6-1.2s4.6,0.4,6.6,1.2c2,0.8,3.8,2,5.2,3.5c1.5,1.5,2.6,3.3,3.4,5.4
			C308.4,206.8,308.9,209.1,308.9,211.7z M297.6,211.7c0-1.6-0.1-2.9-0.4-3.9c-0.3-1.1-0.6-1.9-1.1-2.5c-0.5-0.6-1-1.1-1.7-1.3
			c-0.6-0.3-1.3-0.4-2.1-0.4c-0.8,0-1.4,0.1-2.1,0.4c-0.6,0.3-1.2,0.7-1.6,1.3c-0.4,0.6-0.8,1.5-1,2.5c-0.3,1.1-0.4,2.4-0.4,3.9
			c0,1.5,0.1,2.8,0.4,3.8c0.3,1,0.6,1.8,1,2.4c0.4,0.6,1,1,1.6,1.3c0.6,0.3,1.3,0.4,2.1,0.4c0.8,0,1.5-0.1,2.1-0.4
			c0.6-0.3,1.2-0.7,1.7-1.3c0.5-0.6,0.8-1.4,1.1-2.4C297.5,214.5,297.6,213.3,297.6,211.7z"/>
	</g>
</g>
<g>
	<g>
		<path class="st1" d="M43.5,240.4v7.5h7v4.2h-7v7.6h-4.8v-7.6h-7V248h7v-7.5H43.5z"/>
		<path class="st1" d="M78.1,252.1h2.9v3.3c0,0.3-0.1,0.5-0.3,0.8c-0.2,0.2-0.5,0.3-0.8,0.3h-1.7v6.4H73v-6.4H61.8
			c-0.4,0-0.7-0.1-1-0.3c-0.3-0.2-0.5-0.5-0.6-0.9l-0.6-2.9l12.8-17.2h5.6V252.1z M73,244.9c0-0.4,0-0.9,0-1.4c0-0.5,0.1-1,0.1-1.6
			l-7.3,10.2H73V244.9z"/>
		<path class="st1" d="M102.9,249c0,2.4-0.3,4.5-0.8,6.3c-0.5,1.8-1.2,3.2-2.2,4.4c-0.9,1.2-2,2-3.3,2.6c-1.3,0.6-2.6,0.9-4.1,0.9
			c-1.5,0-2.8-0.3-4.1-0.9c-1.2-0.6-2.3-1.4-3.2-2.6c-0.9-1.2-1.6-2.6-2.1-4.4c-0.5-1.8-0.8-3.9-0.8-6.3c0-2.4,0.3-4.5,0.8-6.3
			c0.5-1.8,1.2-3.2,2.1-4.4c0.9-1.2,2-2,3.2-2.6c1.2-0.6,2.6-0.8,4.1-0.8c1.5,0,2.8,0.3,4.1,0.8c1.3,0.6,2.4,1.4,3.3,2.6
			c0.9,1.2,1.6,2.6,2.2,4.4C102.6,244.5,102.9,246.6,102.9,249z M96.8,249c0-1.9-0.1-3.5-0.4-4.7c-0.2-1.2-0.6-2.2-1-2.9
			c-0.4-0.7-0.9-1.2-1.4-1.4c-0.5-0.3-1-0.4-1.5-0.4c-0.5,0-1,0.1-1.5,0.4c-0.5,0.3-0.9,0.7-1.3,1.4c-0.4,0.7-0.7,1.7-0.9,2.9
			c-0.2,1.2-0.4,2.8-0.4,4.7c0,1.9,0.1,3.5,0.4,4.7c0.2,1.2,0.5,2.2,0.9,2.9c0.4,0.7,0.8,1.2,1.3,1.4c0.5,0.3,1,0.4,1.5,0.4
			c0.5,0,1-0.1,1.5-0.4c0.5-0.3,1-0.7,1.4-1.4c0.4-0.7,0.7-1.7,1-2.9C96.7,252.5,96.8,250.9,96.8,249z"/>
		<path class="st1" d="M124.9,249c0,2.4-0.3,4.5-0.8,6.3c-0.5,1.8-1.2,3.2-2.2,4.4c-0.9,1.2-2,2-3.3,2.6c-1.3,0.6-2.6,0.9-4.1,0.9
			c-1.5,0-2.8-0.3-4.1-0.9c-1.2-0.6-2.3-1.4-3.2-2.6c-0.9-1.2-1.6-2.6-2.1-4.4c-0.5-1.8-0.8-3.9-0.8-6.3c0-2.4,0.3-4.5,0.8-6.3
			c0.5-1.8,1.2-3.2,2.1-4.4c0.9-1.2,2-2,3.2-2.6c1.2-0.6,2.6-0.8,4.1-0.8c1.5,0,2.8,0.3,4.1,0.8c1.3,0.6,2.4,1.4,3.3,2.6
			c0.9,1.2,1.6,2.6,2.2,4.4C124.7,244.5,124.9,246.6,124.9,249z M118.9,249c0-1.9-0.1-3.5-0.4-4.7c-0.2-1.2-0.6-2.2-1-2.9
			c-0.4-0.7-0.9-1.2-1.4-1.4c-0.5-0.3-1-0.4-1.5-0.4c-0.5,0-1,0.1-1.5,0.4c-0.5,0.3-0.9,0.7-1.3,1.4c-0.4,0.7-0.7,1.7-0.9,2.9
			c-0.2,1.2-0.4,2.8-0.4,4.7c0,1.9,0.1,3.5,0.4,4.7c0.2,1.2,0.5,2.2,0.9,2.9c0.4,0.7,0.8,1.2,1.3,1.4c0.5,0.3,1,0.4,1.5,0.4
			c0.5,0,1-0.1,1.5-0.4c0.5-0.3,1-0.7,1.4-1.4c0.4-0.7,0.7-1.7,1-2.9C118.7,252.5,118.9,250.9,118.9,249z"/>
		<path class="st1" d="M153.2,235.1v4.9h-11.4v7h9.5v5h-9.5v10.8h-6.5v-27.7H153.2z"/>
		<path class="st1" d="M155.4,262.8v-19.7h3.5c0.3,0,0.5,0,0.7,0.1c0.2,0.1,0.4,0.1,0.5,0.2c0.1,0.1,0.2,0.3,0.3,0.4
			c0.1,0.2,0.1,0.4,0.2,0.6l0.3,1.8c0.7-1.1,1.5-2,2.4-2.6c0.9-0.6,1.9-1,2.9-1c0.9,0,1.6,0.2,2.2,0.6l-0.8,4.3
			c-0.1,0.3-0.2,0.5-0.3,0.6c-0.2,0.1-0.4,0.2-0.6,0.2c-0.2,0-0.5,0-0.8-0.1c-0.3-0.1-0.7-0.1-1.1-0.1c-1.5,0-2.8,0.8-3.7,2.5v12.1
			H155.4z"/>
		<path class="st1" d="M179.5,242.8c1.3,0,2.5,0.2,3.6,0.6c1.1,0.4,2,1,2.8,1.8c0.8,0.8,1.4,1.7,1.8,2.8c0.4,1.1,0.7,2.4,0.7,3.8
			c0,0.4,0,0.8-0.1,1.1c0,0.3-0.1,0.5-0.2,0.7c-0.1,0.2-0.2,0.3-0.4,0.3c-0.2,0.1-0.4,0.1-0.7,0.1h-11.4c0.2,1.6,0.7,2.8,1.5,3.6
			c0.8,0.7,1.9,1.1,3.1,1.1c0.7,0,1.3-0.1,1.8-0.2c0.5-0.2,0.9-0.3,1.3-0.6c0.4-0.2,0.7-0.4,1.1-0.6c0.3-0.2,0.7-0.2,1-0.2
			c0.5,0,0.8,0.2,1.1,0.5l1.7,2.1c-0.6,0.7-1.3,1.3-2,1.7c-0.7,0.4-1.4,0.8-2.2,1c-0.7,0.2-1.5,0.4-2.2,0.5
			c-0.7,0.1-1.4,0.1-2.1,0.1c-1.4,0-2.7-0.2-3.9-0.7c-1.2-0.4-2.3-1.1-3.2-2c-0.9-0.9-1.6-2-2.1-3.3c-0.5-1.3-0.8-2.9-0.8-4.6
			c0-1.3,0.2-2.6,0.7-3.7c0.4-1.2,1.1-2.2,1.9-3.1c0.8-0.9,1.9-1.6,3.1-2.1C176.7,243.1,178,242.8,179.5,242.8z M179.6,246.9
			c-1.1,0-2,0.3-2.6,1c-0.6,0.6-1.1,1.6-1.3,2.8h7.4c0-0.5-0.1-0.9-0.2-1.4c-0.1-0.4-0.3-0.8-0.6-1.2c-0.3-0.3-0.6-0.6-1.1-0.8
			C180.8,247,180.3,246.9,179.6,246.9z"/>
		<path class="st1" d="M200.2,242.8c1.3,0,2.5,0.2,3.6,0.6c1.1,0.4,2,1,2.8,1.8c0.8,0.8,1.4,1.7,1.8,2.8c0.4,1.1,0.7,2.4,0.7,3.8
			c0,0.4,0,0.8-0.1,1.1c0,0.3-0.1,0.5-0.2,0.7c-0.1,0.2-0.2,0.3-0.4,0.3c-0.2,0.1-0.4,0.1-0.7,0.1h-11.4c0.2,1.6,0.7,2.8,1.5,3.6
			c0.8,0.7,1.9,1.1,3.1,1.1c0.7,0,1.3-0.1,1.8-0.2c0.5-0.2,0.9-0.3,1.3-0.6c0.4-0.2,0.7-0.4,1.1-0.6c0.3-0.2,0.7-0.2,1-0.2
			c0.5,0,0.8,0.2,1.1,0.5l1.7,2.1c-0.6,0.7-1.3,1.3-2,1.7c-0.7,0.4-1.4,0.8-2.2,1c-0.7,0.2-1.5,0.4-2.2,0.5
			c-0.7,0.1-1.4,0.1-2.1,0.1c-1.4,0-2.7-0.2-3.9-0.7c-1.2-0.4-2.3-1.1-3.2-2c-0.9-0.9-1.6-2-2.1-3.3c-0.5-1.3-0.8-2.9-0.8-4.6
			c0-1.3,0.2-2.6,0.7-3.7c0.4-1.2,1.1-2.2,1.9-3.1c0.8-0.9,1.9-1.6,3.1-2.1C197.3,243.1,198.7,242.8,200.2,242.8z M200.3,246.9
			c-1.1,0-2,0.3-2.6,1c-0.6,0.6-1.1,1.6-1.3,2.8h7.4c0-0.5-0.1-0.9-0.2-1.4c-0.1-0.4-0.3-0.8-0.6-1.2c-0.3-0.3-0.6-0.6-1.1-0.8
			C201.5,247,201,246.9,200.3,246.9z"/>
		<path class="st1" d="M235.2,240.8c-0.2,0.3-0.4,0.5-0.6,0.7c-0.2,0.2-0.5,0.2-0.8,0.2c-0.3,0-0.6-0.1-0.9-0.3
			c-0.3-0.2-0.7-0.4-1.1-0.6c-0.4-0.2-0.9-0.4-1.5-0.6c-0.5-0.2-1.2-0.3-1.9-0.3c-1.2,0-2.1,0.3-2.7,0.8c-0.6,0.5-0.9,1.2-0.9,2.1
			c0,0.6,0.2,1,0.5,1.4c0.4,0.4,0.8,0.7,1.4,1c0.6,0.3,1.2,0.5,2,0.7c0.7,0.2,1.5,0.5,2.3,0.7c0.8,0.3,1.5,0.6,2.3,1
			c0.7,0.4,1.4,0.8,2,1.4c0.6,0.6,1,1.3,1.4,2.1c0.4,0.8,0.5,1.8,0.5,3c0,1.3-0.2,2.5-0.7,3.6c-0.4,1.1-1.1,2.1-1.9,2.9
			c-0.8,0.8-1.9,1.5-3.1,2s-2.6,0.7-4.2,0.7c-0.9,0-1.7-0.1-2.6-0.3c-0.9-0.2-1.8-0.4-2.6-0.8s-1.6-0.7-2.4-1.2
			c-0.7-0.4-1.4-0.9-1.9-1.5l1.9-3c0.1-0.2,0.3-0.4,0.6-0.6c0.3-0.1,0.5-0.2,0.8-0.2c0.4,0,0.8,0.1,1.2,0.4c0.4,0.2,0.8,0.5,1.3,0.8
			c0.5,0.3,1,0.6,1.7,0.8c0.6,0.2,1.4,0.4,2.2,0.4c1.2,0,2.1-0.3,2.7-0.8c0.6-0.5,1-1.3,1-2.4c0-0.6-0.2-1.2-0.5-1.6
			c-0.4-0.4-0.8-0.7-1.4-1c-0.6-0.3-1.2-0.5-2-0.7c-0.7-0.2-1.5-0.4-2.3-0.7c-0.8-0.2-1.5-0.6-2.3-0.9c-0.7-0.4-1.4-0.8-2-1.4
			c-0.6-0.6-1-1.3-1.4-2.2c-0.4-0.9-0.5-2-0.5-3.3c0-1,0.2-2.1,0.6-3c0.4-1,1-1.9,1.8-2.6c0.8-0.8,1.8-1.4,3-1.9
			c1.2-0.5,2.5-0.7,4.1-0.7c0.8,0,1.7,0.1,2.5,0.2c0.8,0.1,1.6,0.3,2.3,0.6c0.7,0.3,1.4,0.6,2,0.9s1.2,0.8,1.7,1.2L235.2,240.8z"/>
		<path class="st1" d="M240.4,269.1v-26h3.7c0.4,0,0.7,0.1,0.9,0.2c0.2,0.2,0.4,0.4,0.5,0.7l0.4,1.4c0.4-0.4,0.8-0.8,1.2-1.1
			c0.4-0.3,0.9-0.6,1.4-0.9s1-0.4,1.6-0.6c0.6-0.1,1.2-0.2,1.9-0.2c1,0,2,0.2,2.9,0.7c0.9,0.5,1.6,1.1,2.3,2
			c0.6,0.9,1.1,1.9,1.5,3.2c0.4,1.2,0.5,2.7,0.5,4.2c0,1.5-0.2,2.9-0.6,4.1c-0.4,1.3-1,2.3-1.7,3.3c-0.7,0.9-1.6,1.6-2.7,2.2
			c-1,0.5-2.2,0.8-3.4,0.8c-1,0-1.9-0.1-2.6-0.4c-0.7-0.3-1.3-0.7-1.9-1.2v7.6H240.4z M250,247.2c-0.4,0-0.8,0-1.2,0.1
			c-0.3,0.1-0.7,0.2-1,0.4c-0.3,0.2-0.6,0.3-0.8,0.6c-0.3,0.2-0.5,0.5-0.8,0.8v8.4c0.4,0.5,0.9,0.8,1.4,1c0.5,0.2,1.1,0.3,1.6,0.3
			c0.5,0,1-0.1,1.5-0.3c0.5-0.2,0.9-0.6,1.2-1c0.3-0.5,0.6-1.1,0.8-1.9c0.2-0.8,0.3-1.7,0.3-2.8c0-1-0.1-1.9-0.2-2.6
			c-0.2-0.7-0.4-1.3-0.6-1.7c-0.3-0.4-0.6-0.8-1-0.9C250.9,247.3,250.5,247.2,250,247.2z"/>
		<path class="st1" d="M269.2,237.7c0,0.5-0.1,0.9-0.3,1.3c-0.2,0.4-0.5,0.8-0.8,1.1c-0.3,0.3-0.7,0.6-1.2,0.7
			c-0.4,0.2-0.9,0.3-1.4,0.3c-0.5,0-0.9-0.1-1.3-0.3c-0.4-0.2-0.8-0.4-1.1-0.7c-0.3-0.3-0.6-0.7-0.8-1.1c-0.2-0.4-0.3-0.9-0.3-1.3
			c0-0.5,0.1-0.9,0.3-1.4c0.2-0.4,0.4-0.8,0.8-1.1c0.3-0.3,0.7-0.6,1.1-0.7c0.4-0.2,0.9-0.3,1.3-0.3c0.5,0,1,0.1,1.4,0.3
			c0.4,0.2,0.8,0.4,1.2,0.7c0.3,0.3,0.6,0.7,0.8,1.1S269.2,237.2,269.2,237.7z M268.5,243.1v19.7h-5.9v-19.7H268.5z"/>
		<path class="st1" d="M273.2,262.8v-19.7h3.7c0.4,0,0.7,0.1,0.9,0.2c0.2,0.2,0.4,0.4,0.5,0.7l0.3,1.1c0.4-0.4,0.8-0.7,1.2-1
			c0.4-0.3,0.8-0.6,1.3-0.8c0.5-0.2,1-0.4,1.5-0.5c0.5-0.1,1.1-0.2,1.8-0.2c1.1,0,2,0.2,2.9,0.6c0.8,0.4,1.5,0.9,2.1,1.6
			c0.6,0.7,1,1.5,1.3,2.4c0.3,0.9,0.4,1.9,0.4,3v12.5h-5.9v-12.5c0-1-0.2-1.7-0.7-2.3c-0.4-0.5-1.1-0.8-2-0.8
			c-0.6,0-1.3,0.1-1.8,0.4c-0.6,0.3-1.1,0.7-1.6,1.1v14.1H273.2z"/>
		<path class="st1" d="M307.3,247.4c-0.2,0.2-0.3,0.4-0.5,0.5c-0.2,0.1-0.4,0.2-0.7,0.2c-0.3,0-0.6-0.1-0.8-0.2
			c-0.3-0.1-0.6-0.3-0.9-0.4c-0.3-0.1-0.7-0.3-1.1-0.4c-0.4-0.1-0.9-0.2-1.4-0.2c-0.7,0-1.3,0.1-1.7,0.4c-0.4,0.3-0.6,0.7-0.6,1.2
			c0,0.4,0.1,0.7,0.4,0.9c0.3,0.2,0.6,0.5,1,0.6c0.4,0.2,0.9,0.4,1.5,0.5c0.5,0.2,1.1,0.3,1.7,0.6c0.6,0.2,1.1,0.4,1.7,0.7
			c0.5,0.3,1,0.6,1.5,1c0.4,0.4,0.8,0.9,1,1.5c0.3,0.6,0.4,1.3,0.4,2.1c0,1-0.2,1.9-0.5,2.7c-0.4,0.8-0.9,1.5-1.6,2.1
			c-0.7,0.6-1.6,1.1-2.6,1.4c-1,0.3-2.2,0.5-3.6,0.5c-0.7,0-1.3-0.1-2-0.2c-0.7-0.1-1.3-0.3-1.9-0.5c-0.6-0.2-1.2-0.5-1.7-0.8
			c-0.5-0.3-1-0.6-1.4-1l1.4-2.2c0.2-0.3,0.4-0.5,0.6-0.6c0.2-0.1,0.5-0.2,0.9-0.2c0.3,0,0.6,0.1,0.9,0.2c0.3,0.2,0.6,0.3,0.9,0.5
			c0.3,0.2,0.7,0.3,1.1,0.5c0.4,0.2,1,0.2,1.6,0.2c0.5,0,0.8,0,1.2-0.1c0.3-0.1,0.6-0.2,0.8-0.4c0.2-0.2,0.3-0.3,0.4-0.6
			c0.1-0.2,0.1-0.4,0.1-0.6c0-0.4-0.1-0.7-0.4-1c-0.3-0.3-0.6-0.5-1-0.7c-0.4-0.2-0.9-0.4-1.5-0.5c-0.6-0.2-1.1-0.3-1.7-0.5
			c-0.6-0.2-1.1-0.4-1.7-0.7c-0.6-0.3-1-0.6-1.5-1.1c-0.4-0.4-0.8-1-1-1.6c-0.3-0.6-0.4-1.4-0.4-2.3c0-0.8,0.2-1.6,0.5-2.4
			c0.3-0.8,0.8-1.4,1.5-2c0.6-0.6,1.5-1,2.4-1.4c1-0.3,2.1-0.5,3.4-0.5c0.7,0,1.4,0.1,2.1,0.2c0.7,0.1,1.3,0.3,1.9,0.5
			c0.6,0.2,1.1,0.5,1.6,0.8c0.5,0.3,0.9,0.6,1.3,1L307.3,247.4z"/>
	</g>
	<g>
		<path class="st2" d="M33.3,131.2c-3.6-0.6-6.9-1.6-10.2-3.1c-3.2-1.5-6-3.2-8.2-5.3l4.4-6.4c0.4-0.5,0.9-1,1.5-1.3
			c0.6-0.4,1.3-0.5,2-0.5c0.7,0,1.5,0.2,2.3,0.6c0.8,0.4,1.6,0.9,2.5,1.4s1.9,1.1,3,1.7c1.1,0.6,2.3,1,3.7,1.4l1.7-17.5
			c-2.2-0.6-4.4-1.3-6.6-2.2c-2.2-0.8-4.2-2-5.9-3.4c-1.8-1.4-3.2-3.2-4.3-5.4c-1.1-2.2-1.6-5-1.6-8.3c0-2.4,0.5-4.8,1.5-7.2
			c1-2.3,2.4-4.4,4.3-6.3c1.9-1.9,4.2-3.4,7-4.6c2.8-1.2,6-1.8,9.5-1.8l0.5-5.2c0.1-0.9,0.5-1.7,1.2-2.4c0.7-0.7,1.6-1.1,2.6-1.1
			h5.3l-0.9,9.1c3.3,0.6,6.2,1.6,8.6,3c2.4,1.4,4.4,2.8,6.1,4.4l-3.5,5.1c-0.5,0.8-1.1,1.3-1.6,1.7c-0.5,0.4-1.2,0.5-1.9,0.5
			c-0.5,0-1.1-0.1-1.7-0.3c-0.6-0.2-1.3-0.5-2-0.8c-0.7-0.3-1.5-0.7-2.4-1c-0.8-0.4-1.8-0.7-2.7-1l-1.6,16.4c1.5,0.4,3,0.9,4.4,1.4
			c1.5,0.5,2.9,1.1,4.3,1.8c1.4,0.7,2.7,1.4,3.8,2.3c1.2,0.9,2.2,1.9,3.1,3.1c0.9,1.2,1.6,2.5,2.1,4.1c0.5,1.5,0.7,3.3,0.7,5.2
			c0,2.9-0.5,5.7-1.5,8.3c-1,2.6-2.4,4.9-4.4,6.8c-1.9,2-4.3,3.6-7,4.8c-2.8,1.3-6,2-9.5,2.3l-0.6,5.8c-0.1,0.9-0.5,1.6-1.2,2.3
			c-0.7,0.7-1.6,1-2.6,1h-5.3L33.3,131.2z M31.1,81.5c0,1.8,0.6,3.3,1.7,4.4c1.2,1.1,2.7,2.1,4.6,2.8l1.4-14
			c-1.4,0.2-2.6,0.5-3.6,0.9s-1.8,0.9-2.4,1.5c-0.6,0.6-1,1.2-1.3,2C31.3,80,31.1,80.7,31.1,81.5z M50.8,111.5
			c0-1.8-0.6-3.2-1.7-4.2c-1.1-1-2.6-1.9-4.5-2.6l-1.5,15.3C48.2,119,50.8,116.2,50.8,111.5z"/>
		<path class="st2" d="M77,127.6h20.3V74.4c0-2.6,0.1-5.3,0.2-8.2l-11.9,9.9c-0.8,0.6-1.5,1.1-2.3,1.3c-0.8,0.3-1.5,0.4-2.2,0.4
			c-1.3,0-2.4-0.3-3.4-0.8c-1-0.6-1.7-1.1-2.2-1.8l-7.1-9.4l32.9-27.6h18.5v89.3H137v16.2H77V127.6z"/>
		<path class="st2" d="M223.7,91.1c0,9.2-1,17.2-3,24c-2,6.8-4.7,12.4-8.2,16.8c-3.5,4.4-7.6,7.7-12.4,9.9c-4.8,2.2-10,3.3-15.6,3.3
			c-5.6,0-10.8-1.1-15.5-3.3c-4.8-2.2-8.9-5.5-12.3-9.9c-3.5-4.4-6.2-10-8.1-16.8c-2-6.8-2.9-14.7-2.9-24c0-9.2,1-17.2,2.9-24
			c2-6.8,4.7-12.3,8.1-16.8c3.5-4.4,7.6-7.7,12.3-9.9c4.8-2.1,9.9-3.2,15.5-3.2c5.6,0,10.8,1.1,15.6,3.2c4.8,2.1,8.9,5.4,12.4,9.9
			c3.5,4.4,6.2,10,8.2,16.8C222.7,73.9,223.7,81.9,223.7,91.1z M200.6,91.1c0-7.3-0.5-13.3-1.4-17.9c-0.9-4.7-2.1-8.3-3.7-11
			c-1.5-2.7-3.2-4.5-5.2-5.5c-1.9-1-3.9-1.5-5.9-1.5c-2,0-3.9,0.5-5.8,1.5c-1.9,1-3.6,2.8-5.1,5.5c-1.5,2.7-2.7,6.3-3.5,11
			c-0.9,4.7-1.3,10.6-1.3,17.9c0,7.3,0.4,13.3,1.3,17.9c0.9,4.6,2.1,8.3,3.5,11c1.5,2.7,3.2,4.5,5.1,5.5c1.9,1,3.8,1.5,5.8,1.5
			c2,0,3.9-0.5,5.9-1.5c1.9-1,3.7-2.8,5.2-5.5c1.5-2.7,2.7-6.3,3.7-11C200.1,104.4,200.6,98.4,200.6,91.1z"/>
		<path class="st2" d="M307.7,91.1c0,9.2-1,17.2-3,24c-2,6.8-4.7,12.4-8.2,16.8c-3.5,4.4-7.6,7.7-12.4,9.9c-4.8,2.2-10,3.3-15.6,3.3
			c-5.6,0-10.8-1.1-15.5-3.3s-8.9-5.5-12.3-9.9c-3.5-4.4-6.2-10-8.1-16.8c-2-6.8-2.9-14.7-2.9-24c0-9.2,1-17.2,2.9-24
			c2-6.8,4.7-12.3,8.1-16.8c3.5-4.4,7.6-7.7,12.3-9.9c4.8-2.1,9.9-3.2,15.5-3.2c5.6,0,10.8,1.1,15.6,3.2c4.8,2.1,8.9,5.4,12.4,9.9
			c3.5,4.4,6.2,10,8.2,16.8C306.7,73.9,307.7,81.9,307.7,91.1z M284.5,91.1c0-7.3-0.5-13.3-1.4-17.9c-0.9-4.7-2.1-8.3-3.7-11
			c-1.5-2.7-3.2-4.5-5.2-5.5c-1.9-1-3.9-1.5-5.9-1.5c-2,0-3.9,0.5-5.8,1.5c-1.9,1-3.6,2.8-5.1,5.5c-1.5,2.7-2.7,6.3-3.5,11
			c-0.9,4.7-1.3,10.6-1.3,17.9c0,7.3,0.4,13.3,1.3,17.9c0.9,4.6,2.1,8.3,3.5,11c1.5,2.7,3.2,4.5,5.1,5.5c1.9,1,3.8,1.5,5.8,1.5
			c2,0,3.9-0.5,5.9-1.5c1.9-1,3.7-2.8,5.2-5.5c1.5-2.7,2.7-6.3,3.7-11C284,104.4,284.5,98.4,284.5,91.1z"/>
	</g>
	<g>
		<path class="st2" d="M43.9,167.6v18.7h17.4v10.5H43.9v18.7H32v-18.7H14.7v-10.5H32v-18.7H43.9z"/>
		<path class="st2" d="M116.2,196.5h7.1v8.2c0,0.7-0.2,1.4-0.7,1.9c-0.5,0.5-1.2,0.8-2.1,0.8h-4.2v15.8h-12.7v-15.8H75.9
			c-0.9,0-1.7-0.3-2.5-0.8c-0.7-0.6-1.2-1.3-1.4-2.1l-1.5-7.2l31.7-42.7h13.9V196.5z M103.5,178.6c0-1.1,0-2.3,0.1-3.6
			c0.1-1.3,0.2-2.6,0.4-3.9l-18.1,25.4h17.7V178.6z"/>
		<path class="st2" d="M177.6,188.8c0,6-0.6,11.2-1.9,15.6c-1.3,4.4-3.1,8-5.3,10.9c-2.3,2.9-5,5-8.1,6.5c-3.1,1.4-6.5,2.1-10.2,2.1
			c-3.6,0-7-0.7-10.1-2.1c-3.1-1.4-5.8-3.6-8-6.5c-2.3-2.9-4-6.5-5.3-10.9c-1.3-4.4-1.9-9.6-1.9-15.6c0-6,0.6-11.2,1.9-15.6
			c1.3-4.4,3-8,5.3-10.9c2.3-2.9,4.9-5,8-6.4c3.1-1.4,6.5-2.1,10.1-2.1c3.6,0,7,0.7,10.2,2.1c3.1,1.4,5.8,3.5,8.1,6.4
			c2.3,2.9,4.1,6.5,5.3,10.9C177,177.6,177.6,182.8,177.6,188.8z M162.5,188.8c0-4.7-0.3-8.6-0.9-11.7c-0.6-3-1.4-5.4-2.4-7.1
			c-1-1.7-2.1-2.9-3.4-3.6c-1.3-0.6-2.5-1-3.8-1c-1.3,0-2.6,0.3-3.8,1c-1.2,0.6-2.3,1.8-3.3,3.6c-1,1.7-1.7,4.1-2.3,7.1
			c-0.6,3-0.9,6.9-0.9,11.7c0,4.8,0.3,8.7,0.9,11.7c0.6,3,1.3,5.4,2.3,7.1c1,1.7,2.1,2.9,3.3,3.6c1.2,0.6,2.5,1,3.8,1
			c1.3,0,2.6-0.3,3.8-1c1.3-0.6,2.4-1.8,3.4-3.6c1-1.7,1.8-4.1,2.4-7.1C162.2,197.5,162.5,193.6,162.5,188.8z"/>
		<path class="st2" d="M232.3,188.8c0,6-0.6,11.2-1.9,15.6c-1.3,4.4-3.1,8-5.3,10.9c-2.3,2.9-5,5-8.1,6.5c-3.1,1.4-6.5,2.1-10.2,2.1
			c-3.6,0-7-0.7-10.1-2.1c-3.1-1.4-5.8-3.6-8-6.5c-2.3-2.9-4-6.5-5.3-10.9c-1.3-4.4-1.9-9.6-1.9-15.6c0-6,0.6-11.2,1.9-15.6
			c1.3-4.4,3-8,5.3-10.9c2.3-2.9,4.9-5,8-6.4c3.1-1.4,6.5-2.1,10.1-2.1c3.6,0,7,0.7,10.2,2.1c3.1,1.4,5.8,3.5,8.1,6.4
			c2.3,2.9,4.1,6.5,5.3,10.9C231.6,177.6,232.3,182.8,232.3,188.8z M217.2,188.8c0-4.7-0.3-8.6-0.9-11.7c-0.6-3-1.4-5.4-2.4-7.1
			c-1-1.7-2.1-2.9-3.4-3.6c-1.3-0.6-2.5-1-3.8-1c-1.3,0-2.6,0.3-3.8,1c-1.2,0.6-2.3,1.8-3.3,3.6c-1,1.7-1.7,4.1-2.3,7.1
			c-0.6,3-0.9,6.9-0.9,11.7c0,4.8,0.3,8.7,0.9,11.7c0.6,3,1.3,5.4,2.3,7.1c1,1.7,2.1,2.9,3.3,3.6c1.2,0.6,2.5,1,3.8,1
			c1.3,0,2.6-0.3,3.8-1c1.3-0.6,2.4-1.8,3.4-3.6c1-1.7,1.8-4.1,2.4-7.1C216.9,197.5,217.2,193.6,217.2,188.8z"/>
		<path class="st2" d="M269.4,171.1c0,2.5-0.5,4.8-1.4,6.9c-0.9,2.1-2.1,3.9-3.6,5.3c-1.5,1.5-3.3,2.6-5.3,3.5
			c-2,0.8-4.1,1.2-6.2,1.2c-2.4,0-4.6-0.4-6.6-1.2c-2-0.8-3.7-2-5.2-3.5c-1.5-1.5-2.6-3.3-3.4-5.3c-0.8-2.1-1.2-4.4-1.2-6.9
			c0-2.6,0.4-5,1.2-7.1c0.8-2.1,2-3.9,3.4-5.4c1.5-1.5,3.2-2.7,5.2-3.5c2-0.8,4.2-1.2,6.6-1.2c2.4,0,4.6,0.4,6.6,1.2
			c2,0.8,3.8,2,5.2,3.5c1.5,1.5,2.6,3.3,3.4,5.4S269.4,168.5,269.4,171.1z M291,156.7c0.5-0.5,1.1-1,1.7-1.5
			c0.7-0.5,1.6-0.7,2.9-0.7h10.6l-51.7,66.6c-0.5,0.6-1.1,1.1-1.8,1.5c-0.7,0.4-1.6,0.6-2.6,0.6h-10.9L291,156.7z M258.2,171.1
			c0-1.6-0.1-2.9-0.4-4c-0.3-1.1-0.6-1.9-1.1-2.5c-0.5-0.6-1-1.1-1.7-1.3c-0.6-0.3-1.3-0.4-2.1-0.4c-0.8,0-1.4,0.1-2.1,0.4
			c-0.6,0.3-1.2,0.7-1.6,1.3c-0.4,0.6-0.8,1.5-1,2.5c-0.3,1.1-0.4,2.4-0.4,4c0,1.5,0.1,2.8,0.4,3.8c0.3,1,0.6,1.8,1,2.4
			c0.4,0.6,1,1,1.6,1.3c0.6,0.3,1.3,0.4,2.1,0.4c0.8,0,1.5-0.1,2.1-0.4s1.2-0.7,1.7-1.3c0.5-0.6,0.8-1.4,1.1-2.4
			C258,173.9,258.2,172.6,258.2,171.1z M308.9,207c0,2.5-0.5,4.8-1.4,6.9c-0.9,2.1-2.1,3.9-3.6,5.4c-1.5,1.5-3.3,2.6-5.3,3.5
			c-2,0.8-4.1,1.2-6.2,1.2c-2.4,0-4.6-0.4-6.6-1.2c-2-0.8-3.7-2-5.2-3.5c-1.5-1.5-2.6-3.3-3.4-5.4c-0.8-2.1-1.2-4.4-1.2-6.9
			c0-2.6,0.4-5,1.2-7.1s2-3.9,3.4-5.4c1.5-1.5,3.2-2.7,5.2-3.5c2-0.8,4.2-1.2,6.6-1.2s4.6,0.4,6.6,1.2c2,0.8,3.8,2,5.2,3.5
			c1.5,1.5,2.6,3.3,3.4,5.4C308.4,202,308.9,204.4,308.9,207z M297.6,207c0-1.6-0.1-2.9-0.4-3.9c-0.3-1.1-0.6-1.9-1.1-2.5
			c-0.5-0.6-1-1.1-1.7-1.3c-0.6-0.3-1.3-0.4-2.1-0.4c-0.8,0-1.4,0.1-2.1,0.4c-0.6,0.3-1.2,0.7-1.6,1.3c-0.4,0.6-0.8,1.5-1,2.5
			c-0.3,1.1-0.4,2.4-0.4,3.9c0,1.5,0.1,2.8,0.4,3.8c0.3,1,0.6,1.8,1,2.4c0.4,0.6,1,1,1.6,1.3c0.6,0.3,1.3,0.4,2.1,0.4
			c0.8,0,1.5-0.1,2.1-0.4c0.6-0.3,1.2-0.7,1.7-1.3c0.5-0.6,0.8-1.4,1.1-2.4C297.5,209.8,297.6,208.5,297.6,207z"/>
	</g>
</g>
<g>
	<g class="st0">
		<g>
			<path class="st3" d="M138.7,20.3c0.8-0.3,1.5-0.8,1.9-1.5c0.4-0.6,0.7-1.5,0.7-2.4c0-1.5-0.5-2.5-1.5-3.4
				c-0.9-0.8-2.3-1.2-4.1-1.2h-7.3v17.4h7.7c1.8,0,3.2-0.4,4.2-1.3c1.1-0.8,1.6-2,1.6-3.5c0-1.1-0.3-2-0.8-2.7
				C140.4,21.2,139.7,20.6,138.7,20.3z M131.4,14.4h3.9c1,0,1.9,0.2,2.4,0.6c0.5,0.4,0.7,1.1,0.7,1.8c0,1.7-1.1,2.4-3.1,2.4h-3.9
				V14.4z M138.1,26.3c-0.5,0.4-1.4,0.6-2.4,0.6h-4.3v-5.1h4.3c1.1,0,1.9,0.2,2.4,0.6c0.5,0.4,0.7,1,0.7,2
				C138.8,25.3,138.6,25.9,138.1,26.3z M156.4,12.8c-1.2-0.7-2.6-1.1-4.2-1.1c-1.7,0-3,0.3-4.3,1.1c-1.2,0.7-2.1,1.8-2.7,3.2
				c-0.6,1.4-0.9,2.9-0.9,4.7s0.3,3.4,0.9,4.7c0.6,1.4,1.6,2.4,2.7,3.1c1.2,0.7,2.6,1.1,4.2,1.1c1.6,0,3-0.3,4.2-1.1
				c1.2-0.7,2.1-1.8,2.7-3.1s0.9-2.9,0.9-4.7c0-1.8-0.3-3.4-0.9-4.7C158.5,14.5,157.5,13.5,156.4,12.8z M155.7,25.4
				c-0.8,1.2-2.1,1.7-3.6,1.7c-1.6,0-2.7-0.5-3.7-1.7c-0.8-1.2-1.3-2.7-1.3-4.7c0-2.1,0.4-3.7,1.3-4.7c0.8-1.1,2.1-1.7,3.7-1.7
				s2.7,0.5,3.6,1.7c0.8,1.1,1.3,2.6,1.3,4.7C157,22.7,156.6,24.3,155.7,25.4z M174.4,24.1l-9-12.2h-2.3v17.4h2.8V17.2l9,12.2h2.3
				V11.9h-2.8V24.1z M191.9,22.5c0,1.5-0.3,2.6-1.1,3.4c-0.6,0.7-1.7,1.2-2.9,1.2c-1.4,0-2.3-0.4-3-1.2c-0.6-0.7-1.1-1.9-1.1-3.4V12
				h-3v10.4c0,2.4,0.6,4.2,1.8,5.5c1.2,1.3,2.9,1.9,5.2,1.9s4-0.6,5.2-1.9c1.2-1.3,1.8-3,1.8-5.4V11.9h-3v10.6H191.9z M208,20.5
				c-0.8-0.4-2-0.7-3.5-1.1c-1.4-0.3-2.3-0.6-2.8-1c-0.5-0.3-0.8-0.8-0.8-1.6c0-0.8,0.3-1.5,0.9-1.9c0.6-0.4,1.5-0.6,2.5-0.6
				c1.8,0,3.5,0.6,4.9,1.9l1.1-2.3c-0.6-0.6-1.6-1.2-2.6-1.5c-1.1-0.4-2.2-0.5-3.4-0.5c-1.3,0-2.4,0.2-3.4,0.6
				c-0.9,0.4-1.8,1-2.3,1.9c-0.5,0.8-0.8,1.7-0.8,2.7c0,0.9,0.2,1.8,0.6,2.4c0.4,0.6,1.1,1.2,2,1.6c0.8,0.4,2,0.7,3.4,1.1
				c1.4,0.3,2.3,0.6,2.9,0.9c0.6,0.3,0.8,0.8,0.8,1.5c0,0.7-0.3,1.4-0.9,1.8c-0.6,0.4-1.5,0.6-2.6,0.6c-1.1,0-2-0.1-2.9-0.4
				c-0.9-0.3-1.8-0.7-2.5-1.4l-1.1,2.3c0.7,0.6,1.7,1.2,2.8,1.6c1.2,0.3,2.3,0.5,3.6,0.5c1.4,0,2.5-0.2,3.6-0.6
				c1.1-0.4,1.8-1,2.3-1.8c0.5-0.7,0.8-1.7,0.8-2.7c0-0.9-0.2-1.8-0.7-2.4C209.6,21.4,208.9,20.8,208,20.5z M231.5,13.3
				c-1.1-0.9-2.4-1.4-4.2-1.4H220v17.4h3v-6.7h4.3c1.8,0,3.1-0.4,4.2-1.4s1.5-2.2,1.5-3.9S232.5,14.2,231.5,13.3z M226.9,20.1H223
				v-5.7h3.9c1.1,0,1.9,0.2,2.4,0.7c0.5,0.4,0.7,1.2,0.7,2.2C230.1,19.2,229,20.1,226.9,20.1z M239.7,11.9l-7.6,17.4h3l1.7-4.1h8.2
				l1.7,4.1h3l-7.6-17.4C242.3,11.9,239.7,11.9,239.7,11.9z M238,22.8l3-7.5l3,7.5H238z M258.7,14.3c0.8,0,1.7,0.1,2.4,0.4
				c0.7,0.3,1.5,0.7,2.3,1.4l1.1-2.3c-0.6-0.6-1.6-1.2-2.5-1.6c-1.1-0.3-2.1-0.5-3.1-0.5c-1.7,0-3,0.3-4.3,1.1
				c-1.3,0.7-2.2,1.8-2.8,3.2c-0.6,1.4-0.9,2.9-0.9,4.7s0.3,3.4,0.9,4.7c0.6,1.4,1.6,2.4,2.8,3.1s2.6,1.1,4.3,1.1
				c1.2,0,2.2-0.2,3.1-0.5c1-0.3,1.9-0.8,2.5-1.6l-1.1-2.3c-0.7,0.6-1.5,1-2.3,1.4c-0.7,0.3-1.6,0.4-2.4,0.4c-1.6,0-2.8-0.5-3.8-1.7
				c-0.9-1.2-1.4-2.6-1.4-4.7c0-2,0.4-3.6,1.4-4.7C255.9,14.9,257.1,14.3,258.7,14.3z M288.4,11.9l-7.2,16.7l-7.8-8.3l8.1-8.4h-3.7
				l-7.5,7.8v-7.8h-3v17.4h3v-8.1l7.8,8.1h2.7h1.1h2.1l1.7-4.1h8.2l1.7,4.1h3L291,11.9C291,11.9,288.4,11.9,288.4,11.9z M286.6,22.8
				l3-7.5l3,7.5H286.6z M307.4,22.2h3.6v4.4c-1,0.3-2.2,0.4-3.3,0.4c-3.6,0-5.5-2.1-5.5-6.4c0-2.1,0.4-3.7,1.4-4.7
				c0.9-1.1,2.2-1.6,3.9-1.6c0.9,0,1.8,0.1,2.5,0.4c0.7,0.3,1.5,0.7,2.3,1.4l1-2.3c-0.6-0.6-1.6-1.2-2.5-1.5c-1-0.3-2.1-0.5-3.3-0.5
				c-1.7,0-3.1,0.3-4.4,1.1s-2.2,1.8-2.8,3c-0.6,1.4-1,2.9-1,4.7c0,1.9,0.3,3.5,1,4.8c0.6,1.4,1.7,2.4,2.9,3
				c1.3,0.7,2.7,1.1,4.5,1.1c1.2,0,2.2-0.1,3.4-0.3c1-0.2,2-0.5,2.7-0.9v-8.4h-6.3v2.3H307.4z M328.4,14.4v-2.5h-11.2v17.4h11.2
				v-2.5h-8.2v-5h7.8v-2.5h-7.8v-4.8H328.4z"/>
		</g>
	</g>
	<path class="st4" d="M20,27.1l-5-15.2h-1.2L8.6,27.2l-5-15.3H2.1L8,29.3h1.3l5-15l5,15h1.3l5.9-17.4H25L20,27.1z"/>
	<path class="st4" d="M39.8,29.3v-1.3h-8.9v-6.8h8.4v-1.4h-8.4v-6.6h8.9v-1.4H29.4v17.4H39.8z"/>
	<path class="st4" d="M53.5,29.3V28h-8.6V11.9h-1.5v17.4H53.5z"/>
	<path class="st4" d="M62.1,29.6c1.2,0,2.2-0.2,3.1-0.5c0.9-0.4,1.8-0.9,2.5-1.7l-0.6-1.3c-0.8,0.7-1.6,1.3-2.4,1.7
		c-0.8,0.3-1.7,0.5-2.6,0.5c-2,0-3.5-0.6-4.5-2S56,23.2,56,20.7s0.5-4.2,1.6-5.6c1-1.4,2.6-2,4.5-2c0.9,0,1.9,0.2,2.6,0.5
		c0.8,0.3,1.6,0.8,2.4,1.7l0.6-1.3c-0.7-0.7-1.6-1.4-2.5-1.7c-0.9-0.4-2-0.5-3.1-0.5c-1.6,0-2.9,0.3-4.1,1.1c-1.2,0.7-2,1.8-2.6,3
		c-0.5,1.2-0.8,2.8-0.8,4.6s0.3,3.5,0.9,4.7c0.6,1.4,1.5,2.4,2.6,3C59.2,29.1,60.5,29.6,62.1,29.6L62.1,29.6z"/>
	<path class="st4" d="M77.8,29.6c1.6,0,2.8-0.3,4-1.1c1.2-0.7,2-1.8,2.6-3c0.6-1.4,0.9-2.9,0.9-4.7c0-1.8-0.3-3.4-0.9-4.7
		s-1.5-2.3-2.6-3s-2.4-1.1-4-1.1c-1.6,0-2.8,0.3-4,1.1c-1.2,0.7-2,1.8-2.6,3c-0.6,1.4-0.9,2.9-0.9,4.7s0.3,3.4,0.9,4.7
		c0.6,1.4,1.5,2.4,2.6,3C75,29.1,76.3,29.6,77.8,29.6L77.8,29.6z M77.8,28.2c-1.9,0-3.4-0.6-4.4-2c-1-1.4-1.6-3.1-1.6-5.6
		s0.5-4.2,1.6-5.6c1.1-1.4,2.5-2,4.4-2c1.9,0,3.4,0.6,4.4,2c1,1.3,1.6,3.1,1.6,5.6s-0.5,4.3-1.6,5.6C81.2,27.6,79.7,28.2,77.8,28.2
		L77.8,28.2z"/>
	<path class="st4" d="M96.8,25.1l-6.6-13.2H89v17.4h1.4V15.1l5.9,11.5h1l5.9-11.7v14.4h1.4V11.9h-1.3L96.8,25.1z"/>
	<path class="st4" d="M119.3,29.3v-1.3h-8.9v-6.8h8.4v-1.4h-8.4v-6.6h8.9v-1.4h-10.4v17.4H119.3z"/>
	<g>
		<g>
			<path class="st2" d="M137.8,18.3c0.8-0.3,1.5-0.8,1.9-1.5s0.7-1.5,0.7-2.4c0-1.5-0.5-2.5-1.5-3.4c-0.9-0.8-2.3-1.2-4.1-1.2h-7.3
				v17.4h7.7c1.8,0,3.1-0.4,4.2-1.3c1.1-0.8,1.6-2,1.6-3.5c0-1.1-0.3-2-0.8-2.7C139.5,19.2,138.7,18.6,137.8,18.3z M130.4,12.4h3.9
				c1,0,1.9,0.2,2.4,0.6c0.5,0.4,0.7,1.1,0.7,1.8c0,1.7-1.1,2.4-3.1,2.4h-3.9V12.4z M137.2,24.3c-0.5,0.4-1.4,0.6-2.4,0.6h-4.3v-5.1
				h4.3c1.1,0,1.9,0.2,2.4,0.6s0.7,1.1,0.7,2C137.9,23.3,137.6,23.9,137.2,24.3z M155.4,10.8c-1.2-0.7-2.6-1.1-4.2-1.1
				c-1.7,0-3,0.3-4.3,1.1c-1.2,0.7-2.1,1.8-2.7,3.1c-0.6,1.4-0.9,2.9-0.9,4.7s0.3,3.4,0.9,4.7c0.6,1.4,1.6,2.4,2.7,3.1
				c1.2,0.7,2.6,1,4.2,1c1.6,0,3-0.3,4.2-1c1.2-0.7,2.1-1.8,2.7-3.1c0.6-1.4,0.9-2.9,0.9-4.7s-0.3-3.4-0.9-4.7
				C157.5,12.5,156.6,11.5,155.4,10.8z M154.7,23.4c-0.8,1.2-2.1,1.7-3.6,1.7c-1.6,0-2.7-0.5-3.7-1.7c-0.8-1.2-1.3-2.7-1.3-4.7
				c0-2.1,0.4-3.7,1.3-4.7c0.8-1.1,2.1-1.7,3.7-1.7c1.6,0,2.7,0.5,3.6,1.7c0.8,1.1,1.3,2.6,1.3,4.7
				C156.1,20.7,155.6,22.3,154.7,23.4z M173.5,22.1l-9-12.2h-2.3v17.4h2.8V15.2l9,12.2h2.3V9.9h-2.8V22.1z M190.9,20.5
				c0,1.5-0.3,2.6-1.1,3.4c-0.6,0.7-1.7,1.2-2.9,1.2c-1.4,0-2.3-0.4-3-1.2c-0.6-0.7-1.1-1.9-1.1-3.4V10h-3v10.4
				c0,2.4,0.6,4.2,1.8,5.5s2.9,1.9,5.2,1.9s4-0.6,5.2-1.9c1.2-1.3,1.8-3,1.8-5.4V9.9h-3v10.6H190.9z M207,18.5
				c-0.8-0.4-2-0.7-3.5-1.1c-1.4-0.3-2.3-0.6-2.8-1c-0.5-0.3-0.8-0.8-0.8-1.6c0-0.8,0.3-1.5,0.9-1.9c0.6-0.4,1.5-0.6,2.5-0.6
				c1.8,0,3.5,0.6,4.9,1.9l1.1-2.3c-0.6-0.6-1.6-1.2-2.6-1.5c-1.1-0.4-2.2-0.5-3.4-0.5c-1.3,0-2.4,0.2-3.4,0.6
				c-0.9,0.4-1.8,1.1-2.3,1.9c-0.5,0.8-0.8,1.7-0.8,2.7c0,0.9,0.2,1.8,0.6,2.4c0.4,0.6,1.1,1.2,2,1.6c0.8,0.4,2,0.7,3.4,1.1
				s2.3,0.6,2.9,0.9c0.6,0.3,0.8,0.8,0.8,1.5c0,0.7-0.3,1.4-0.9,1.8c-0.6,0.4-1.5,0.6-2.6,0.6c-1.1,0-2-0.1-2.9-0.4
				c-0.9-0.3-1.8-0.7-2.5-1.4l-1.1,2.3c0.7,0.6,1.7,1.2,2.8,1.6c1.2,0.3,2.3,0.5,3.6,0.5c1.4,0,2.5-0.2,3.6-0.6c1-0.4,1.8-1,2.3-1.8
				c0.5-0.7,0.8-1.7,0.8-2.7c0-0.9-0.2-1.8-0.7-2.4C208.6,19.4,207.9,18.8,207,18.5z M230.5,11.3c-1-0.9-2.4-1.4-4.2-1.4h-7.3v17.4
				h3v-6.7h4.3c1.8,0,3.2-0.4,4.2-1.4c1.1-0.9,1.5-2.2,1.5-3.9C232.1,13.6,231.5,12.2,230.5,11.3z M226,18.1h-3.9v-5.7h3.9
				c1.1,0,1.9,0.2,2.4,0.7c0.5,0.4,0.7,1.2,0.7,2.2C229.1,17.2,228.1,18.1,226,18.1z M238.7,9.9l-7.6,17.4h3l1.7-4.1h8.2l1.7,4.1h3
				l-7.6-17.4H238.7z M236.9,20.8l3-7.5l3,7.5H236.9z M257.7,12.3c0.8,0,1.7,0.1,2.4,0.4c0.7,0.3,1.5,0.7,2.3,1.4l1-2.3
				c-0.6-0.6-1.6-1.2-2.5-1.6c-1-0.3-2.1-0.5-3.1-0.5c-1.7,0-3,0.3-4.3,1.1c-1.3,0.7-2.2,1.8-2.8,3.1c-0.6,1.4-0.9,2.9-0.9,4.7
				s0.3,3.4,0.9,4.7c0.6,1.4,1.6,2.4,2.8,3.1c1.3,0.7,2.6,1,4.3,1c1.2,0,2.2-0.2,3.1-0.5c1.1-0.3,1.9-0.8,2.5-1.6l-1-2.3
				c-0.7,0.6-1.5,1-2.3,1.4c-0.7,0.3-1.6,0.4-2.4,0.4c-1.6,0-2.8-0.5-3.8-1.7c-0.8-1-1.4-2.6-1.4-4.7c0-2,0.4-3.6,1.4-4.7
				C254.9,12.9,256.1,12.3,257.7,12.3z M287.4,9.9l-7.2,16.7l-7.8-8.3l8.1-8.4h-3.7l-7.5,7.8V9.9h-3v17.4h3v-8.1l7.8,8.1h2.7h1h2.1
				l1.7-4.1h8.2l1.7,4.1h3L290,9.9H287.4z M285.5,20.8l3-7.5l3,7.5H285.5z M306.3,20.2h3.6v4.4c-1.1,0.3-2.2,0.4-3.3,0.4
				c-3.6,0-5.5-2.1-5.5-6.4c0-2.1,0.4-3.7,1.4-4.7c0.8-1.1,2.2-1.6,3.9-1.6c0.9,0,1.8,0.1,2.5,0.4c0.7,0.3,1.5,0.7,2.3,1.4l1-2.3
				c-0.6-0.6-1.6-1.2-2.5-1.5c-1.1-0.3-2.1-0.5-3.3-0.5c-1.7,0-3.1,0.3-4.4,1.1c-1.3,0.6-2.2,1.7-2.9,3c-0.6,1.4-1,2.9-1,4.7
				c0,1.9,0.3,3.5,1,4.8c0.6,1.4,1.7,2.4,2.9,3c1.3,0.7,2.7,1,4.5,1c1.2,0,2.2-0.1,3.4-0.3c1-0.2,2-0.5,2.7-0.9v-8.4h-6.3v2.3H306.3
				z M327.4,12.4V9.9h-11.2v17.4h11.2v-2.5h-8.3v-5h7.8v-2.5h-7.8v-4.8H327.4z"/>
		</g>
	</g>
	<path class="st1" d="M18.9,25.1l-5-15.2h-1.2l-5,15.3l-5-15.3H1.2l5.9,17.4h1.3l5-15l5,15h1.3l5.9-17.4h-1.5L18.9,25.1z"/>
	<path class="st1" d="M38.9,27.4v-1.3h-8.9v-6.8h8.4v-1.5h-8.4v-6.5h8.9V9.9H28.5v17.4H38.9z"/>
	<path class="st1" d="M52.4,27.4V26h-8.6V9.9h-1.5v17.4H52.4z"/>
	<path class="st1" d="M61.1,27.6c1.2,0,2.2-0.2,3.1-0.5c0.9-0.4,1.8-0.9,2.5-1.7l-0.6-1.3c-0.8,0.7-1.6,1.3-2.4,1.7
		c-0.8,0.3-1.7,0.5-2.6,0.5c-2,0-3.5-0.6-4.5-2c-1-1.4-1.6-3.2-1.6-5.6s0.5-4.2,1.6-5.6c1.1-1.4,2.6-2,4.5-2c0.9,0,1.9,0.2,2.6,0.5
		c0.8,0.3,1.6,0.8,2.4,1.7l0.6-1.3c-0.7-0.7-1.6-1.4-2.5-1.7c-0.9-0.4-2-0.5-3.2-0.5c-1.6,0-2.9,0.3-4.1,1.1c-1.2,0.5-2,1.6-2.6,2.9
		c-0.6,1.4-0.9,2.9-0.9,4.7s0.3,3.5,0.9,4.7c0.6,1.4,1.5,2.4,2.6,3C58.2,27.1,59.6,27.6,61.1,27.6L61.1,27.6z"/>
	<path class="st1" d="M76.8,27.6c1.6,0,2.8-0.3,4-1c1.2-0.7,2-1.8,2.6-3c0.6-1.4,0.9-2.9,0.9-4.7S84,15.4,83.4,14
		c-0.5-1.5-1.5-2.5-2.5-3.3c-1.2-0.7-2.4-1.1-4-1.1c-1.6,0-2.8,0.3-4,1.1c-1.2,0.7-2,1.8-2.6,3.1c-0.6,1.4-0.9,2.9-0.9,4.7
		s0.3,3.4,0.9,4.7c0.6,1.4,1.5,2.4,2.6,3C73.9,27.1,75.3,27.6,76.8,27.6L76.8,27.6z M76.8,26.2c-1.9,0-3.4-0.6-4.4-2
		c-1.1-1.4-1.6-3.1-1.6-5.6s0.5-4.2,1.6-5.6c1-1.4,2.5-2,4.4-2s3.4,0.6,4.4,2c1.1,1.3,1.6,3.2,1.6,5.6s-0.5,4.3-1.6,5.6
		C80.1,25.6,78.7,26.2,76.8,26.2L76.8,26.2z"/>
	<path class="st1" d="M95.9,23.2L89.3,9.9H88v17.4h1.4V13.1l5.9,11.6h1.1l5.9-11.7v14.4h1.4V9.9h-1.3L95.9,23.2z"/>
	<path class="st1" d="M118.4,27.4v-1.3h-8.9v-6.8h8.4v-1.5h-8.4v-6.5h8.9V9.9H108v17.4H118.4z"/>
</g>
</svg>
